<?xml version="1.0" encoding="UTF-8"?>
<svg width="32px" height="32px" viewBox="0 0 32 32" version="1.1" xmlns="http://www.w3.org/2000/svg" xmlns:xlink="http://www.w3.org/1999/xlink">
    <title>Marketplace</title>
    <defs>
        <linearGradient x1="0%" y1="74.2170429%" x2="100%" y2="25.3285957%" id="linearGradient-1">
            <stop stop-color="#508AF6" offset="0%"></stop>
            <stop stop-color="#3FD7FE" offset="100%"></stop>
        </linearGradient>
        <linearGradient x1="50%" y1="0%" x2="50%" y2="100%" id="linearGradient-2">
            <stop stop-color="#FFE279" offset="0%"></stop>
            <stop stop-color="#FFC144" offset="100%"></stop>
        </linearGradient>
        <circle id="path-3" cx="16" cy="16" r="16"></circle>
    </defs>
    <g id="Marketplace" stroke="none" stroke-width="1" fill="none" fill-rule="evenodd">
        <g id="椭圆形">
            <use fill="url(#linearGradient-1)" xlink:href="#path-3"></use>
            <use fill="url(#linearGradient-2)" xlink:href="#path-3"></use>
        </g>
        <g id="编组" transform="translate(9.000000, 9.014719)" fill="#FFFFFF" fill-rule="nonzero">
            <g id="交易">
                <path d="M7.07977195,14.0638646 C6.6681211,14.0638646 6.25609697,14.0263061 5.84670481,13.9511889 C5.63390554,13.9121419 5.49306855,13.7081596 5.53217201,13.4955689 C5.57125966,13.2829909 5.77545116,13.1423161 5.98826624,13.1813631 C6.68645332,13.3094731 7.39318489,13.314226 8.08892028,13.1954985 C8.80617983,13.0730895 9.49172257,12.8222672 10.1265077,12.4500566 C10.1274852,12.4494972 10.1284469,12.4489379 10.1294244,12.4483754 C10.86122,12.027691 11.4878656,11.4769721 11.9919083,10.8115455 C12.4784223,10.1692703 12.8310463,9.44761799 13.0399988,8.66661784 C13.2481952,7.88838915 13.3031349,7.09084867 13.20329,6.29616182 C13.0999842,5.47416166 12.8346526,4.69117692 12.4146502,3.96894636 C12.0178233,3.28933695 11.5379115,2.72672319 10.9478386,2.24953817 C10.7796757,2.11353729 10.7537132,1.86711389 10.8898556,1.69912582 C11.0259981,1.53115354 11.2726621,1.50518329 11.4408408,1.64118733 C12.1059192,2.17904753 12.6459557,2.81167159 13.0917782,3.57517076 C13.5652746,4.38934318 13.8642147,5.2718131 13.9806963,6.19866124 C14.0932172,7.09406571 14.0313875,7.99240282 13.7969375,8.86867567 C13.561703,9.74789378 13.1646199,10.5604672 12.6167096,11.2838164 C12.0492807,12.0329084 11.3445073,12.6526106 10.5218256,13.1258264 C9.80541708,13.5456639 9.03129758,13.8286662 8.22087747,13.9669898 C7.8425283,14.0315772 7.4613257,14.0638646 7.07977195,14.0638646 Z M2.49942821,12.22048 C2.40368626,12.22048 2.30773868,12.1856266 2.23220488,12.1152181 C1.71755194,11.6353754 1.32009869,11.1236434 1.01735925,10.5510562 C0.546570765,9.73941504 0.249025726,8.85942585 0.132882654,7.93523544 C0.0203617401,7.03983096 0.082191452,6.14151281 0.316625582,5.265221 C0.551844242,4.3859871 0.948946369,3.57342951 1.49685354,2.85008025 C2.06461772,2.10050793 2.76998584,1.48045184 3.59332234,1.0071254 C4.74845145,0.339088504 6.07756423,0.0206101862 7.43563529,0.0868725436 C7.65174986,0.0973895743 7.81839431,0.280941468 7.80786317,0.49681555 C7.79730039,0.712705429 7.61343093,0.879157663 7.39749351,0.868640632 C6.19030975,0.809836278 5.01022732,1.09210226 3.98503709,1.68502202 C3.25234621,2.10622153 2.62571648,2.65693726 2.12168643,3.32236386 C1.63515978,3.96463907 1.28254847,4.68630713 1.07359596,5.4673073 C0.865380544,6.24552335 0.810459816,7.04306067 0.91032058,7.8377475 C1.01361054,8.65974766 1.27895794,9.4427166 1.6989445,10.1649282 C1.70168406,10.1696495 1.70432869,10.1744213 1.70687844,10.1792564 C1.9685246,10.6758764 2.31523923,11.1219875 2.7668287,11.5430069 C2.92500775,11.6904887 2.93355225,11.9381255 2.78591698,12.0961402 C2.70877932,12.1787121 2.60422397,12.22048 2.49942821,12.22048 Z M7.07977195,14.1421356 C6.66432179,14.1421356 6.24468637,14.1037933 5.83255468,14.0281643 C5.70905657,14.0055122 5.60177434,13.936156 5.53047324,13.8328787 C5.45918796,13.7296171 5.43240932,13.6047905 5.45510078,13.4814177 C5.4777954,13.358048 5.54720476,13.2508773 5.65058961,13.1796693 C5.75395865,13.1084423 5.87890245,13.0817041 6.00241637,13.1043594 C6.69149903,13.2308197 7.3890629,13.2354936 8.07571286,13.1183178 C8.7835643,12.9975236 9.46021141,12.7499657 10.0868411,12.382527 L10.0910232,12.380141 C10.8130248,11.9650596 11.4317712,11.4212899 11.9294206,10.7643168 C12.4097943,10.1301569 12.7579673,9.41758378 12.9642878,8.64639594 C13.1698586,7.87796374 13.2241055,7.09052633 13.1255291,6.30589198 C13.0235551,5.49434565 12.7615704,4.72131859 12.346889,4.00826199 C11.954899,3.33692905 11.4810989,2.78150466 10.8985235,2.31037139 C10.6970399,2.14742376 10.6658387,1.85111716 10.828937,1.64987465 C10.9920542,1.44861635 11.2886533,1.41744763 11.4901211,1.58034468 C12.1627317,2.12428819 12.7087629,2.76389305 13.1594571,3.53573507 C13.6381953,4.35893608 13.9406437,5.25155645 14.0584223,6.18892161 C14.1721928,7.09442914 14.1096924,8.00283453 13.8726295,8.88888808 C13.6347503,9.77795327 13.2332257,10.5996026 12.6791814,11.3310356 C12.1054067,12.0885178 11.3927152,12.715185 10.5609164,13.1936499 C9.83684597,13.6179684 9.05379922,13.9042226 8.23405323,14.0441294 C7.85309109,14.1091561 7.46472326,14.1421356 7.07977195,14.1421356 Z M5.91683544,13.2531052 C5.85389851,13.2531052 5.79250218,13.2720757 5.73956809,13.3085313 C5.6706554,13.356016 5.6243709,13.4274673 5.60925907,13.5097106 C5.59413143,13.5919508 5.61196699,13.6751706 5.65950106,13.7439958 C5.70703513,13.8128527 5.77854502,13.8590733 5.86088659,13.8741852 C6.26370824,13.9481014 6.67380583,13.985581 7.07978462,13.985581 C7.45592253,13.985581 7.83539472,13.9533694 8.20768588,13.8898248 C9.00869788,13.7531192 9.77395653,13.4733498 10.4821781,13.0583126 C11.296252,12.5900455 11.9931895,11.977242 12.554225,11.2365877 C13.0959951,10.5213569 13.4886399,9.71787849 13.7212645,8.8484569 C13.9530698,7.98201217 14.0141941,7.09374651 13.9029544,6.20839768 C13.7878046,5.29200338 13.4920881,4.41928257 13.0240391,3.61447689 C12.5831548,2.85942801 12.0491415,2.2338037 11.3915321,1.70200788 C11.2572782,1.59339931 11.0595149,1.61419635 10.9507426,1.74837067 C10.842021,1.88253234 10.8628239,2.08005849 10.9971379,2.18870183 C11.5947271,2.67197015 12.0805325,3.24138459 12.4823482,3.92951381 C12.9077347,4.66096257 13.1764164,5.45389237 13.2810382,6.28640955 C13.3821643,7.09116784 13.326535,7.8987766 13.1157097,8.68682076 C12.9041316,9.47766485 12.5470629,10.2084278 12.054415,10.8587741 C11.5440232,11.5325878 10.9095102,12.0902369 10.1685469,12.5162241 L10.1666709,12.5172954 C9.52317997,12.8945939 8.82872893,13.1486522 8.10214036,13.2726476 C7.39730054,13.3928951 6.68132535,13.3880948 5.97414774,13.258351 C5.95501201,13.2548496 5.93584147,13.2531052 5.91683544,13.2531052 Z M2.49942821,12.298751 C2.38001729,12.298751 2.26611711,12.2538924 2.1787425,12.1724329 C1.65793348,11.6868608 1.25559268,11.1688654 0.948785035,10.5889624 C0.473184954,9.76863077 0.172514407,8.87906629 0.0551375906,7.94498453 C-0.0586487086,7.0395244 0.00387064498,6.13111901 0.240914622,5.2449991 C0.478746294,4.35599711 0.880270938,3.53433195 1.43436266,2.80285157 C2.00852334,2.04485741 2.72174314,1.41787108 3.55423153,0.939292447 C4.72271042,0.263522636 6.06611885,-0.0583181009 7.43946306,0.00868056837 C7.69836968,0.0212801529 7.89873023,0.241957671 7.88611753,0.500610905 C7.87384017,0.751499614 7.66558046,0.947344553 7.41683486,0.947360349 C7.40914135,0.947360349 7.40141618,0.947167575 7.39364357,0.946801 C6.20152418,0.888685555 5.03631314,1.16741532 4.0242829,1.75274435 C3.30087043,2.16861267 2.68182033,2.71257197 2.18415515,3.36957671 C1.70378141,4.00370502 1.35560843,4.71627811 1.14928793,5.48749756 C0.943701335,6.25588235 0.889454421,7.04333241 0.988062462,7.82796677 C1.09002061,8.63946569 1.35198944,9.41247695 1.76670252,10.1255778 C1.7700368,10.1313261 1.77320975,10.1370239 1.77623718,10.1428197 C2.03370126,10.6314982 2.37522149,11.0708055 2.82028792,11.4857605 C2.91208505,11.5713472 2.96502229,11.6875307 2.9693499,11.8129008 C2.97367752,11.9382709 2.92886717,12.0578168 2.84319133,12.1495027 C2.7546146,12.2443803 2.62931967,12.298751 2.49942821,12.298751 Z M7.08398568,0.156563665 C5.86273088,0.156563665 4.67628357,0.471281398 3.63256816,1.07487935 C2.81822219,1.54303576 2.12074057,2.15615529 1.5593381,2.89732472 C1.01753639,3.61260608 0.624891572,4.41606554 0.392317564,5.28543973 C0.160512259,6.15193186 0.0993721729,7.04018172 0.210627718,7.92549894 C0.325438975,8.83918814 0.619668729,9.70934606 1.08515208,10.511829 L1.08664206,10.5145183 C1.3852437,11.0792905 1.7774583,11.5841712 2.28566727,12.0580127 C2.34392229,12.112317 2.41983887,12.1422217 2.49944404,12.1422217 C2.58731532,12.1422217 2.66871416,12.1068878 2.7286205,12.0427712 C2.78575566,11.9816126 2.81561235,11.9019353 2.81272727,11.8183331 C2.8098422,11.7347626 2.77455386,11.6573069 2.71336315,11.6002501 C2.25523482,11.1731284 1.9033448,10.7202451 1.63753236,10.2157341 C1.63546347,10.2118124 1.63335027,10.2079696 1.63113902,10.2041743 C1.20586317,9.4728993 0.937149842,8.67997268 0.83256287,7.84751554 C0.731420893,7.04272564 0.787047091,6.23510108 0.99787552,5.44710432 C1.20947267,4.65624128 1.56653811,3.92548143 2.05918922,3.27513515 C2.56959679,2.60130252 3.20439773,2.04347956 3.9459368,1.61718904 C4.98397696,1.0168429 6.17898458,0.730907959 7.40128017,0.790464437 C7.57365997,0.798917887 7.72116554,0.665445128 7.72959613,0.493004368 C7.73801093,0.32057942 7.6044309,0.173451577 7.43182648,0.165061341 C7.31568026,0.159382531 7.19960045,0.156563665 7.08398568,0.156563665 Z M6.69699712,5.71917563 L5.34780589,4.2815215 C5.16790972,4.10181236 5.19789609,3.8023203 5.37779228,3.62261117 L5.37779228,3.62261117 C5.55768845,3.44290203 5.85750802,3.47285724 6.03738838,3.65256639 L7.38658278,5.09020472 C7.56647895,5.26991385 7.53649257,5.56940591 7.35659639,5.74911505 L7.35659639,5.74911505 C7.14671382,5.8988658 6.87689329,5.8988658 6.69699712,5.71917563 Z M7.03268393,5.93557745 C6.88807926,5.93557745 6.74863418,5.88145013 6.64159238,5.77451961 L6.63983032,5.77270884 L5.29147109,4.33595219 C5.08832036,4.13192558 5.10205608,3.78739801 5.32236854,3.56727984 C5.52651258,3.36334804 5.87210419,3.3767819 6.09277095,3.59721924 L6.09451718,3.59903001 L7.44289541,5.03578666 C7.64604613,5.23981327 7.6322946,5.58434084 7.41199479,5.80445901 L7.40741094,5.8090381 L7.40213746,5.81280186 C7.2870067,5.89495983 7.15793143,5.93557745 7.03268393,5.93557745 Z M6.75324967,5.66467857 C6.89863887,5.8090855 7.11978649,5.8186608 7.30569323,5.68920461 C7.4582793,5.53221391 7.47039533,5.28465601 7.33117485,5.14556448 L7.3294128,5.14375371 L5.98111683,3.70706028 C5.82420314,3.55119144 5.57354999,3.53775757 5.43319385,3.67797095 C5.27634345,3.83467409 5.26260772,4.0857208 5.40320745,4.22619015 L5.4049695,4.22800092 L6.75324967,5.66467857 Z M6.75696989,5.09020156 L8.1961013,3.74240989 C8.37599747,3.56270075 8.67580123,3.59265595 8.8556974,3.7723651 L8.8556974,3.7723651 C9.00560719,3.95207424 9.00560719,4.22162689 8.82572684,4.40133603 L7.38657962,5.7491277 C7.20668344,5.92883683 6.90686388,5.92883683 6.72698352,5.7491277 L6.72698352,5.7491277 C6.54708733,5.56941854 6.57707372,5.26989488 6.75696989,5.09020156 Z M7.05677364,5.96217023 C6.91016333,5.96217023 6.77337872,5.90616893 6.67158192,5.80445901 C6.57016789,5.70315042 6.5194767,5.56476045 6.52885001,5.41478215 C6.53764758,5.27418639 6.6005845,5.1357174 6.70156515,5.03485756 L6.70337463,5.03311315 L8.14164242,3.68613996 C8.3458972,3.48318465 8.6907865,3.49692189 8.91111478,3.71700529 L8.91592323,3.72225749 C9.09738848,3.93982858 9.08243799,4.25555439 8.88116319,4.45667049 L8.87933788,4.45843071 L7.4410859,5.80538808 C7.33934922,5.90650392 7.20293473,5.96217023 7.05677364,5.96217023 Z M6.81150469,5.14641141 C6.73766966,5.22058365 6.69166038,5.32189224 6.68524805,5.42454707 C6.67870919,5.52905691 6.71321299,5.62466772 6.78238508,5.69378054 C6.8545846,5.7659208 6.95204116,5.80564091 7.05677364,5.80564091 C7.16152194,5.80564091 7.25897848,5.76592079 7.33119383,5.69378054 L7.33300648,5.69203613 L8.77117936,4.34514195 C8.91313939,4.20244784 8.92437598,3.97976992 8.79778401,3.82521255 C8.64074063,3.67089535 8.39138765,3.6580556 8.251525,3.79777284 L8.24971234,3.79951725 L6.81150469,5.14641141 Z M11.0743515,1.28644612 L13.1131283,1.67581644 C13.3529783,1.7357237 13.5328745,1.9753243 13.4729049,2.21492489 L13.4729049,2.24488011 C13.4129353,2.48448071 13.1730853,2.66418984 12.9332353,2.60428259 L10.8944553,2.21491224 C10.6546053,2.15500499 10.4747092,1.91540439 10.5346788,1.67580379 L10.5346788,1.64586439 C10.5946515,1.40626379 10.8345015,1.22653886 11.0743515,1.28644612 Z M13.0279144,2.66292892 C12.9928506,2.66292892 12.9577679,2.65870061 12.9231503,2.65016817 L10.8830605,2.26047551 C10.7551716,2.22853572 10.63869,2.14797677 10.5634789,2.0394788 C10.4849651,1.92617738 10.458139,1.79526753 10.4876762,1.67018501 L10.4876762,1.64007178 L10.4890871,1.63446881 C10.558256,1.35810916 10.8307528,1.17803345 11.0844492,1.24056681 L13.1245231,1.63025947 C13.2524279,1.66221507 13.3688936,1.74275821 13.4441048,1.85127197 C13.5226186,1.9645734 13.5494447,2.09546745 13.5199075,2.22054996 L13.5199075,2.25066318 L13.5184966,2.25626616 C13.4865235,2.38402218 13.4058776,2.50038263 13.2972699,2.57551557 C13.213916,2.63316648 13.1210117,2.66290996 13.0279144,2.66292892 Z M10.9046163,2.1690456 L12.9446396,2.55872247 C13.0449812,2.58379206 13.1511879,2.56229346 13.2437727,2.49828431 C13.3323368,2.43703083 13.3984751,2.34275043 13.4258959,2.23894216 L13.4258959,2.20914813 L13.4273068,2.20354515 C13.4523867,2.10333946 13.4308974,1.99721163 13.3668058,1.90472621 C13.3046565,1.81505651 13.2085634,1.74839282 13.10298,1.72170206 L11.0629536,1.33202519 C10.8598851,1.2813077 10.6407557,1.42745904 10.5816814,1.65178655 L10.5816814,1.6815964 L10.5802705,1.68719938 C10.5551906,1.78742086 10.57668,1.8935329 10.6407874,1.98602147 C10.7029398,2.07569115 10.799036,2.1423422 10.9046163,2.1690456 Z M0.85050916,11.1702148 L2.88928287,11.5595851 C3.12913284,11.6194924 3.30902901,11.859093 3.2490594,12.0986935 L3.2490594,12.1286488 C3.1890898,12.3682494 2.94923983,12.5479585 2.70938987,12.4880512 L0.670631967,12.0986967 C0.430782003,12.0387863 0.250885832,11.7991889 0.310855438,11.5595883 L0.310855438,11.5296489 C0.340807026,11.2900135 0.610659196,11.1103044 0.85050916,11.1702148 Z M2.80202214,12.5463563 C2.76777458,12.5463563 2.73339733,12.5423397 2.69929211,12.5339495 L0.659218224,12.1442568 C0.38420646,12.0755769 0.204424172,11.8062139 0.263833846,11.5539632 L0.26418499,11.5237994 C0.279875727,11.3984135 0.354972972,11.2812377 0.470252421,11.2023252 C0.589217293,11.1208846 0.731401931,11.0924842 0.860575259,11.1243102 L2.90066498,11.5140187 C3.02855396,11.5459584 3.14503551,11.6265174 3.22024665,11.7350312 C3.29876044,11.8483326 3.32558653,11.9792266 3.29605252,12.1043281 L3.29605252,12.1344255 L3.29465744,12.1400285 C3.23479538,12.3792467 3.02255921,12.5463405 2.80202214,12.5463563 Z M0.680789821,12.0528111 L2.72078147,12.442488 C2.92390055,12.4932055 3.14296347,12.3470541 3.20203781,12.1227108 L3.20203781,12.0929168 L3.20343289,12.0873138 C3.22853174,11.9871113 3.20703924,11.8809803 3.14293183,11.7884917 C3.0807826,11.698822 2.9846895,11.6321583 2.87909023,11.6054518 L0.839082754,11.2157591 C0.735647285,11.1899184 0.620579788,11.2132625 0.523395301,11.2797967 C0.431180599,11.3429399 0.370967401,11.434964 0.35784224,11.5326542 L0.35784224,11.5653461 L0.35644716,11.570949 C0.305373174,11.7750926 0.453824607,11.9954636 0.680789821,12.0528111 Z M9.27545935,6.70754902 L4.86810279,6.70754902 C4.62825283,6.70754902 4.44835666,6.52783989 4.44835666,6.28823929 L4.44835666,6.19837682 C4.44835666,5.95877622 4.62825283,5.77906709 4.86810279,5.77906709 L9.27545935,5.77906709 C9.51530931,5.77906709 9.69520548,5.95877622 9.69520548,6.19837682 L9.69520548,6.28823929 C9.69520548,6.52783987 9.51530931,6.70754902 9.27545935,6.70754902 Z M9.27545935,6.78581999 L4.86808698,6.78581999 C4.58413213,6.78581999 4.3699884,6.5718989 4.3699884,6.28823928 L4.3699884,6.19839261 C4.3699884,5.91471719 4.58413213,5.7008119 4.86808698,5.7008119 L9.27545935,5.7008119 C9.55943001,5.7008119 9.77355793,5.91473298 9.77355793,6.19839261 L9.77355793,6.28823928 C9.77355793,6.5718989 9.5594142,6.78581999 9.27545935,6.78581999 Z M4.86808698,5.85733807 C4.670273,5.85733807 4.52669329,6.00076851 4.52669329,6.19837682 L4.52669329,6.28822348 C4.52669329,6.4858318 4.67027301,6.62926223 4.86808698,6.62926223 L9.27545935,6.62926223 C9.47327333,6.62926223 9.61685304,6.48583179 9.61685304,6.28820767 L9.61685304,6.19836101 C9.61685304,6.00075268 9.47327332,5.85732226 9.27545935,5.85732226 L4.86808698,5.85732226 L4.86808698,5.85733807 Z M6.63704333,9.94222498 L6.63704333,6.61768655 C6.63704333,6.37808595 6.8169395,6.19837682 7.05678946,6.19837682 L7.14672964,6.19837682 C7.3865796,6.19837682 7.56647577,6.37808595 7.56647577,6.61768655 L7.56647577,9.97217704 C7.56647577,10.2117776 7.3865796,10.3914868 7.14672964,10.3914868 L7.02680307,10.3914868 C6.81692367,10.3615316 6.63704333,10.1818414 6.63704333,9.94222498 Z M7.14672964,10.4697736 L7.01573098,10.4689898 C6.7551762,10.431782 6.55869088,10.2053246 6.55869088,9.94222184 L6.55869088,6.61770235 C6.55869088,6.33402692 6.77283461,6.12012163 7.05678946,6.12012163 L7.14672964,6.12012163 C7.4307003,6.12012163 7.64482822,6.33404272 7.64482822,6.61770235 L7.64482822,9.97219283 C7.64482822,10.2558683 7.4307003,10.4697736 7.14672964,10.4697736 Z M7.03265231,10.3132316 L7.14672964,10.3132316 C7.34455943,10.3132316 7.48812332,10.1698012 7.48812332,9.97219285 L7.48812332,6.61770235 C7.48812332,6.42009402 7.34454361,6.2766636 7.14672964,6.2766636 L7.05678946,6.2766636 C6.85895967,6.2766636 6.71539578,6.42009404 6.71539578,6.61770235 L6.71539578,9.9422408 C6.71539578,10.1261593 6.85141166,10.2847174 7.03265231,10.3132316 Z M9.27545935,8.80411032 L4.86810279,8.80411032 C4.62825283,8.80411032 4.44835666,8.62440118 4.44835666,8.38480058 L4.44835666,8.29493811 C4.44835666,8.05533751 4.62825283,7.87562838 4.86810279,7.87562838 L9.27545935,7.87562838 C9.51530931,7.87562838 9.69520548,8.05533751 9.69520548,8.29493811 L9.69520548,8.38480058 C9.69520548,8.62440434 9.51530931,8.80411032 9.27545935,8.80411032 Z M9.27545935,8.88238445 L4.86808698,8.88238445 C4.58413213,8.88238445 4.3699884,8.66846336 4.3699884,8.38480373 L4.3699884,8.29494126 C4.3699884,8.01126583 4.58413213,7.79736054 4.86808698,7.79736054 L9.27545935,7.79736054 C9.55943001,7.79736054 9.77355793,8.01128163 9.77355793,8.29494126 L9.77355793,8.38480373 C9.77355793,8.66846021 9.5594142,8.88238445 9.27545935,8.88238445 Z M4.86808698,7.95388357 C4.670273,7.95388357 4.52669329,8.09731401 4.52669329,8.29492232 L4.52669329,8.38478479 C4.52669329,8.58240891 4.67027301,8.72582354 4.86808698,8.72582354 L9.27545935,8.72582354 C9.47327333,8.72582354 9.61685304,8.58239309 9.61685304,8.38478479 L9.61685304,8.29492232 C9.61685304,8.0972982 9.47327332,7.95388357 9.27545935,7.95388357 L4.86808698,7.95388357 Z" id="形状"></path>
            </g>
        </g>
    </g>
</svg>