<?xml version="1.0" encoding="UTF-8"?>
<svg width="32px" height="32px" viewBox="0 0 32 32" version="1.1" xmlns="http://www.w3.org/2000/svg" xmlns:xlink="http://www.w3.org/1999/xlink">
    <title>Proposal</title>
    <defs>
        <linearGradient x1="50%" y1="0%" x2="50%" y2="100%" id="linearGradient-1">
            <stop stop-color="#FF36B9" offset="0%"></stop>
            <stop stop-color="#FF1983" offset="100%"></stop>
        </linearGradient>
    </defs>
    <g id="Proposal" stroke="none" stroke-width="1" fill="none" fill-rule="evenodd">
        <circle id="椭圆形" fill="url(#linearGradient-1)" cx="16" cy="16" r="16"></circle>
        <g id="编组" transform="translate(9.000000, 9.000000)" fill="#FFFFFF" fill-rule="nonzero">
            <g id="奖章勋章" transform="translate(2.000000, 0.000000)">
                <path d="M4.74999999,5.99975 C2.95362499,5.99975 1.49999999,7.45409999 1.49999999,9.24999999 C1.49999999,11.044925 2.95362499,12.5 4.74999999,12.5 C6.5454,12.5 7.99999999,11.044925 7.99999999,9.24999999 C7.99999999,7.45409999 6.54542499,5.99975 4.74999999,5.99975 Z M4.75,12.25 C3.09569999,12.25 1.75,10.9043 1.75,9.25000001 C1.75,7.59570001 3.0957,6.24975001 4.75,6.24975001 C6.40429999,6.24975001 7.75,7.5957 7.75,9.25000001 C7.75,10.9043 6.4043,12.25 4.75,12.25 Z" id="形状"></path>
                <path d="M6.25,8.788075 L5.1953,8.788075 L4.86865001,7.78515 C4.83545001,7.681625 4.66455001,7.681625 4.63135001,7.78515 L4.30517501,8.788075 L3.24999999,8.788075 C3.19579999,8.788075 3.14794998,8.82322499 3.13134999,8.875 C3.11424999,8.926275 3.13282499,8.98242499 3.17674999,9.01465 L4.029775,9.634275 L3.7041,10.6377 C3.6875,10.68945 3.70605,10.7456 3.75,10.77735 C3.79297499,10.8091 3.85352499,10.8091 3.896475,10.77735 L4.74999999,10.157725 L5.60352499,10.77735 C5.62499999,10.792975 5.65089999,10.801275 5.67677499,10.801275 C5.70264998,10.801275 5.72852499,10.792975 5.75002498,10.77735 C5.79397499,10.7456 5.81252499,10.68945 5.79592498,10.6377 L5.47024998,9.63427501 L6.32327499,9.01465001 C6.36722499,8.98242501 6.38577499,8.92627501 6.36867499,8.87500001 C6.35204999,8.82325 6.3042,8.788075 6.25,8.788075 Z" id="路径"></path>
                <path d="M9.5,0.537850004 C9.49609999,0.530275006 9.49119999,0.523450006 9.49119999,0.511725006 C9.49119999,0.235600012 9.267575,0.011725 8.99119998,0.011725 C8.97312499,0.011725 8.96189998,0.00732499414 8.95507498,0 L0.532224998,0 C0.525399998,0.00732499414 0.51415,0.011725 0.496099994,0.011725 C0.226574988,0.011725 0.0107499902,0.225825004 0,0.492424994 L0,3.698725 L1.759275,5.561275 C0.686525,6.432125 0,7.76025 0,9.25000001 C0,11.87305 2.125975,14 4.74999999,14 C7.37254999,14 9.5,11.87305 9.5,9.25000001 C9.5,7.76025001 8.81299999,6.432375 7.74022499,5.56152501 L9.5,3.698725 L9.5,0.537850004 Z M6.375,0.999999998 L6.375,4.7915 C5.86719999,4.60620001 5.32177499,4.5 4.74999999,4.5 C4.178225,4.5 3.63279999,4.60619999 3.12499999,4.79125 L3.12499999,0.999999998 L6.375,0.999999998 Z M0.999999998,0.999999998 L2.375,0.999999998 L2.375,4.757075 L0.999999998,3.301275 L0.999999998,0.999999998 Z M8.5,9.25000001 C8.5,11.317875 6.81787498,13 4.74999999,13 C2.682125,13 0.999999998,11.317875 0.999999998,9.25000001 C0.999999998,7.18212502 2.682125,5.50000001 4.74999999,5.50000001 C6.81787498,5.50000001 8.5,7.182125 8.5,9.25000001 Z M8.5,3.301275 L7.12499998,4.757075 L7.12499998,0.999999998 L8.5,0.999999998 L8.5,3.301275 Z" id="形状"></path>
            </g>
        </g>
    </g>
</svg>