<?xml version="1.0" encoding="UTF-8"?>
<svg width="32px" height="32px" viewBox="0 0 32 32" version="1.1" xmlns="http://www.w3.org/2000/svg" xmlns:xlink="http://www.w3.org/1999/xlink">
    <title>Validator</title>
    <defs>
        <linearGradient x1="0%" y1="74.2170429%" x2="100%" y2="25.3285957%" id="linearGradient-1">
            <stop stop-color="#508AF6" offset="0%"></stop>
            <stop stop-color="#3FD7FE" offset="100%"></stop>
        </linearGradient>
    </defs>
    <g id="Validator" stroke="none" stroke-width="1" fill="none" fill-rule="evenodd">
        <circle id="椭圆形" fill="url(#linearGradient-1)" cx="16" cy="16" r="16"></circle>
        <g id="编组" transform="translate(9.000000, 9.014719)" fill="#FFFFFF">
            <g id="编组-6" transform="translate(0.000000, 0.014868)">
                <path d="M10.6430485,3.04097094 C11.2015209,3.04097094 11.6542523,3.49323164 11.6542523,4.05112348 L11.6542523,8.09173366 C11.6542523,8.64962551 11.2015209,9.10188621 10.6430485,9.10188621 L1.54221359,9.10188621 C0.983741111,9.10188621 0.531009715,8.64962551 0.531009715,8.09173366 L0.531009715,4.05112348 C0.531009715,3.49323164 0.983741111,3.04097094 1.54221359,3.04097094 L10.6430485,3.04097094 Z M10.6430485,4.05112348 L1.54221359,4.05112348 L1.54221359,8.09173366 L10.6430485,8.09173366 L10.6430485,4.05112348 Z" id="矩形" fill-rule="nonzero" transform="translate(6.092631, 6.071429) rotate(-45.000000) translate(-6.092631, -6.071429) "></path>
                <path d="M10.8884077,6.31653268 C11.4468801,6.31653268 11.8996115,6.76879338 11.8996115,7.32668522 L11.8996115,13.3876005 C11.8996115,13.9454923 11.4468801,14.397753 10.8884077,14.397753 L9.87720379,14.397753 C9.31873131,14.397753 8.86599992,13.9454923 8.86599992,13.3876005 L8.86599992,7.32668522 C8.86599992,6.76879338 9.31873131,6.31653268 9.87720379,6.31653268 L10.8884077,6.31653268 Z M10.8884077,7.32668522 L9.87720379,7.32668522 L9.87720379,13.3876005 L10.8884077,13.3876005 L10.8884077,7.32668522 Z" id="矩形" fill-rule="nonzero" transform="translate(10.382806, 10.357143) rotate(-45.000000) translate(-10.382806, -10.357143) "></path>
                <rect id="矩形" x="0" y="13.117115" width="8.089631" height="1.01015254" rx="0.5"></rect>
            </g>
        </g>
    </g>
</svg>